<svg width="23" height="20" viewBox="0 0 23 20" fill="none" xmlns="http://www.w3.org/2000/svg">
<path d="M11.1131 2.79836L11.5 3.27099L11.8869 2.79836C12.7947 1.68945 14.2605 0.799463 15.8787 0.562272C17.4791 0.327683 19.2352 0.729222 20.7756 2.2133C23.3114 4.65631 22.8247 8.42945 20.7753 10.4263C20.7748 10.4269 20.7743 10.4274 20.7737 10.4279L11.5 19.2945L2.22625 10.4279C2.22573 10.4274 2.22521 10.4269 2.22468 10.4264C0.175346 8.42948 -0.31137 4.65632 2.22437 2.2133C3.76477 0.729222 5.52086 0.327683 7.12132 0.562272C8.73953 0.799463 10.2053 1.68945 11.1131 2.79836Z" fill="#FF6565" stroke="#FF6565"/>
</svg>
